<?xml version="1.0" encoding="UTF-8"?>
<svg id="Layer_1" xmlns="http://www.w3.org/2000/svg" version="1.1" viewBox="0 0 3783.44 3370.7">
  <!-- Generator: Adobe Illustrator 30.5.1, SVG Export Plug-In . SVG Version: 2.1.4 Build 3)  -->
  <defs>
    <style>
      .st0 {
        font-family: Futura-Medium, Futura;
        font-size: 200px;
        font-weight: 500;
        letter-spacing: .6em;
      }

      .st0, .st1, .st2 {
        fill: #7f1519;
      }

      .st0, .st3, .st2 {
        isolation: isolate;
      }

      .st4 {
        fill: #d1d3d4;
      }

      .st5 {
        fill: #d0a334;
      }

      .st2 {
        font-family: Didot, Didot;
        font-size: 350px;
      }
    </style>
  </defs>
  <g id="Layer_11">
    <path class="st4" d="M2448.7,2642.87c0,11.28-246.42,20.51-550.53,20.51s-550.52-9.23-550.52-20.51,246.49-20.42,550.52-20.42c304.11-.01,550.53,9.14,550.53,20.42Z"/>
    <g>
      <path class="st5" d="M3408.86,120.99c-67.15-28.55-537.45-9.78-641.29-37.88C2597.16,37.03,2375.54,0,2113.57,0c-694.62,0-1085.84,260.14-1085.84,260.14v557.65C1621.96,392.55,2933.58,153.39,3408.86,120.99h0Z"/>
      <path class="st1" d="M3181.48,402c-257.04,0-759.07,103.92-1263.76,250.69v4.13c0,30.47-29.49,132.25-62.97,278.96,192-61.06,371.75-103.92,446.7-101.71,64.86,5.99,133.5,69.37,131.62,115.96-2.32,42.8-71.09,20.47-123.32,18.54-91.87-2.2-298.78,85.38-495.07,179.29-21.1,132.25-82.36,750.85,99.88,1353.28,37.76,15.66,23.79-218.3,62.91-204.62,46.14,16.06,90.19,30.76,138.48,44.16,614.77-170.41,1078.43-553.24,1078.43-1242.06V402.39c0-.23-7.1-.39-12.9-.39h0Z"/>
      <path class="st5" d="M1463.59,1318.79c-56.23,26.58-94.02,42.97-106.16,42.97-52.37-1.98-129.93-69.38-127.64-122.3,0-40.59,108.54-103.92,257.04-166.91,16.55-124.44,38.72-228.42,63.88-301.81-197.72,71.75-603.12,275.91-739.8,352.64l225.25-24.77c0,446.61,197.31,764.59,503.13,979.44-61.47-200.31-79.56-689.95-75.7-759.26h0Z"/>
    </g>
  </g>
  <g id="Layer_2">
    <g class="st3">
      <g class="st3">
        <g class="st3">
          <text class="st2" transform="translate(0 3049.7026)"><tspan x="0" y="0">FLOWING IN CHRIST</tspan></text>
        </g>
      </g>
    </g>
  </g>
  <g id="Layer_3">
    <g class="st3">
      <g class="st3">
        <g class="st3">
          <text class="st0" transform="translate(810.9039 3312.9883)"><tspan x="0" y="0">MINISTRIES</tspan></text>
        </g>
      </g>
    </g>
  </g>
</svg>